<svg width="49" height="46" viewBox="0 0 49 46" fill="none" xmlns="http://www.w3.org/2000/svg">
<path d="M13.5 45.0312L20 45.0312L6.5 23.0313L1.59523e-08 23.0313L13.5 45.0312Z" fill="#EFA56E"/>
<path d="M35.0156 0.0156261L28.5156 0.015625L42.0156 22.0156L48.5156 22.0156L35.0156 0.0156261Z" fill="#044079"/>
<path d="M21 45.0312L27.5 45.0312L14 23.0313L7.5 23.0313L21 45.0312Z" fill="#DB8241"/>
<path d="M27.5156 0.0156261L21.0156 0.015625L34.5156 22.0156L41.0156 22.0156L27.5156 0.0156261Z" fill="#10579A"/>
<path d="M28.5 45.0312L35 45.0312L21.5 23.0313L15 23.0313L28.5 45.0312Z" fill="#CD6F2A"/>
<path d="M20.0156 0.0156261L13.5156 0.015625L27.0156 22.0156L33.5156 22.0156L20.0156 0.0156261Z" fill="#246DB1"/>
<path d="M36.0389 45.0469L22.4935 23.0235L35.3477 23.0235L48.5156 23.0235L36.0389 45.0469Z" fill="#B85915"/>
<path d="M12.4768 0L26.0222 22.0234L13.1679 22.0234L-1.92535e-06 22.0234L12.4768 0Z" fill="#4B8BC7"/>
</svg>
