<svg width="70" height="70" viewBox="0 0 70 70" fill="none" xmlns="http://www.w3.org/2000/svg">
<path d="M24.0627 63.4375H45.9377" stroke="#4169C1" stroke-width="3" stroke-linecap="round" stroke-linejoin="round"/>
<path d="M21.8663 45.9323C19.1667 43.9086 16.9726 41.287 15.4561 38.2731C13.9396 35.2592 13.1419 31.9349 13.1257 28.561C13.0602 16.7041 22.6191 6.84778 34.4729 6.56878C39.1124 6.45713 43.6672 7.82383 47.4788 10.4713C51.2905 13.1188 54.1614 16.9098 55.6766 21.2963C57.1918 25.6829 57.2727 30.4376 55.9076 34.8732C54.5426 39.3088 51.8023 43.1953 48.083 45.9709C47.4128 46.4783 46.87 47.1348 46.4977 47.8884C46.1254 48.642 45.9337 49.472 45.9379 50.3126V50.3126C45.9379 50.8928 45.7074 51.4492 45.2972 51.8594C44.887 52.2696 44.3306 52.5001 43.7504 52.5001H26.2503C25.6701 52.5001 25.1137 52.2696 24.7035 51.8594C24.2933 51.4492 24.0628 50.8928 24.0628 50.3127V50.2507C24.0571 49.4097 23.8557 48.5817 23.4744 47.8322C23.0931 47.0826 22.5426 46.4322 21.8663 45.9323V45.9323Z" stroke="#4169C1" stroke-width="3" stroke-linecap="round" stroke-linejoin="round"/>
<path d="M44.6001 26.2496C44.1867 24.4421 43.2719 22.7878 41.9608 21.4767C40.6497 20.1656 38.9954 19.2508 37.1879 18.8375" stroke="#4169C1" stroke-width="3" stroke-linecap="round" stroke-linejoin="round"/>
</svg>
