<svg width="14" height="18" viewBox="0 0 14 18" fill="none" xmlns="http://www.w3.org/2000/svg">
<path d="M7.00162 1C7.01439 1 7.0229 1.00426 7.03141 1.01277L12.9857 6.30736C12.9985 6.32013 13.0027 6.34141 12.9985 6.35843C12.99 6.37546 12.9729 6.38823 12.9559 6.38823H1.04733C1.03031 6.38823 1.01328 6.37546 1.00477 6.35843C0.996257 6.34141 1.00477 6.32013 1.01754 6.30736L6.97183 1.01277C6.98034 1.00426 6.98885 1 7.00162 1ZM12.8367 6.29459L7.00162 1.1064L1.1665 6.29459H12.8367Z" stroke="white" stroke-width="0.3" stroke-miterlimit="10"/>
<path d="M12.9551 6.29443C12.9593 6.29443 12.9679 6.29443 12.9721 6.29869C12.9891 6.3072 12.9976 6.32423 12.9976 6.34125V16.9347C12.9976 16.9517 12.9891 16.9687 12.9721 16.9773C12.9551 16.9858 12.9381 16.9815 12.921 16.9687L6.971 11.6699C6.96249 11.6614 6.95398 11.6486 6.95398 11.6358C6.95398 11.6231 6.95824 11.6103 6.971 11.6018L12.9253 6.3072C12.9338 6.29869 12.9423 6.29443 12.9551 6.29443ZM12.9083 16.8325V6.4434L7.06889 11.6358L12.9083 16.8325Z" stroke="white" stroke-width="0.3" stroke-miterlimit="10"/>
<path d="M1.04682 6.29468C1.05959 6.29468 1.0681 6.29893 1.07661 6.30745L7.0309 11.602C7.03941 11.6106 7.04792 11.6233 7.04792 11.6361C7.04792 11.6489 7.04367 11.6616 7.0309 11.6701L1.07661 16.969C1.06384 16.9818 1.04256 16.986 1.02554 16.9775C1.00851 16.969 1 16.952 1 16.9349V6.34149C1 6.32447 1.00851 6.30745 1.02554 6.29893C1.03405 6.29893 1.0383 6.29468 1.04682 6.29468ZM6.93301 11.6361L1.08938 6.44364V16.8328L6.93301 11.6361Z" stroke="white" stroke-width="0.3" stroke-miterlimit="10"/>
<path d="M8.9672 2.72827C8.98422 2.72827 8.99699 2.73678 9.0055 2.74955C9.01402 2.76232 9.01402 2.77934 9.0055 2.79637L7.04344 6.30765L12.9977 16.9139L12.9169 16.9607L6.99237 6.40555L1.08489 16.9564L1.00403 16.9096L6.93704 6.3034L4.97923 2.81339C4.97072 2.80063 4.97072 2.7836 4.97923 2.76658C4.98774 2.75381 5.00051 2.7453 5.01753 2.7453L8.9672 2.72827ZM6.98811 6.21402L8.88633 2.82191L5.09414 2.83893L6.98811 6.21402Z" stroke="white" stroke-width="0.3" stroke-miterlimit="10"/>
</svg>
